<svg id="Layer_1" enable-background="new 0 0 512 512" height="512" viewBox="0 0 512 512" width="512" xmlns="http://www.w3.org/2000/svg"><g><path d="m432.733 351.333h-160.667c-8.284 0-15-6.716-15-15v-64.267c0-8.284 6.716-15 15-15h160.667c8.284 0 15 6.716 15 15v64.267c0 8.285-6.715 15-15 15z" fill="#5d3935"/><path d="m447.733 336.333v-64.267c0-8.284-6.716-15-15-15h-80.333v94.267h80.333c8.285 0 15-6.715 15-15z" fill="#170100"/><path d="m207.8 287.067h-64.267c-8.284 0-15-6.716-15-15v-64.267c0-27.166-22.101-49.267-49.267-49.267-8.284 0-15-6.716-15-15s6.716-15 15-15h64.267c43.708 0 79.267 35.559 79.267 79.267v64.267c0 8.284-6.716 15-15 15z" fill="#dcaa78"/><path d="m368.467 222.8c-8.284 0-15-6.716-15-15v-32.133c0-9.61-7.784-17.133-17.134-17.133h-32.133c-25.489 0-47.134-20.556-47.134-47.133 0-25.989 21.145-47.133 47.134-47.133h96.4c9.341 0 17.134-7.517 17.134-17.133 0-9.455-7.687-17.133-17.134-17.133-8.284 0-15-6.716-15-15s6.716-15 15-15c25.989 0 47.134 21.137 47.134 47.117 0 26.598-21.635 47.149-47.134 47.149h-96.4c-9.447 0-17.134 7.686-17.134 17.133 0 9.591 7.767 17.133 17.134 17.133h32.133c25.434 0 47.134 20.503 47.134 47.133v32.133c0 8.284-6.716 15-15 15z" fill="#e6e3dc"/><path d="m288.134 512c-88.151 0-159.601-71.331-159.601-159.6v-80.333h94.267v96.4c0 9.447 7.687 17.133 17.134 17.133s17.133-7.686 17.133-17.133v-32.133h190.667v16.066c-.001 88.004-71.596 159.6-159.6 159.6z" fill="#b28562"/><path d="m352.4 336.333v162.14c56.088-24.773 95.333-80.922 95.333-146.073v-16.066h-95.333z" fill="#875f4b"/></g></svg>