<svg id="Layer_1" enable-background="new 0 0 512 512" height="512" viewBox="0 0 512 512" width="512" xmlns="http://www.w3.org/2000/svg"><g><path d="m377.186 484.793-112.467-80.334c-5.215-3.725-12.222-3.725-17.437 0l-112.467 80.334c-6.616 4.726-8.382 14.072-3.487 20.925 2.928 4.099 7.539 6.282 12.219 6.282 3.017 0 6.063-.908 8.706-2.795l103.747-74.106 103.748 74.106c2.643 1.888 5.688 2.795 8.706 2.795 4.68 0 9.291-2.184 12.219-6.282 4.951-6.932 3.057-16.251-3.487-20.925z" fill="#b28562"/><path d="m368.454 512c4.68 0 9.291-2.184 12.219-6.282 4.951-6.932 3.057-16.25-3.487-20.925l-112.467-80.334c-2.608-1.863-5.663-2.794-8.719-2.794v33.434l103.748 74.106c2.643 1.888 5.689 2.795 8.706 2.795z" fill="#875f4b"/><path d="m368.467 431.666h-224.934c-8.284 0-15-6.716-15-15s6.716-15 15-15h224.934c8.284 0 15 6.716 15 15s-6.716 15-15 15z" fill="#5d3935"/><path d="m383.467 416.666c0-8.284-6.716-15-15-15h-112.467v30h112.467c8.284 0 15-6.716 15-15z" fill="#170100"/><path d="m384.533 303.132h-257.066c-8.284 0-15-6.716-15-15s6.716-15 15-15h257.066c8.284 0 15 6.716 15 15s-6.716 15-15 15z" fill="#875f4b"/><path d="m399.533 288.132c0-8.284-6.716-15-15-15h-128.533v30h128.533c8.284 0 15-6.715 15-15z" fill="#5d3935"/><path d="m360.434 126.4h-80.334c-25.989 0-47.133-21.144-47.133-47.133 0-22.395 15.699-41.192 36.671-45.963 8.62-19.818 28.418-33.304 50.629-33.304 22.294 0 42.099 13.487 50.665 33.312 20.953 4.785 36.635 23.573 36.635 45.955-.001 25.989-21.144 47.133-47.133 47.133z" fill="#faf5f0"/><path d="m360.434 126.4c25.989 0 47.133-21.144 47.133-47.133 0-22.382-15.682-41.17-36.635-45.955-8.567-19.825-28.371-33.312-50.665-33.312v126.4z" fill="#e6e3dc"/><path d="m79.267 190.666c-8.284 0-15-6.716-15-15v-32.133c0-8.284 6.716-15 15-15s15 6.716 15 15v32.133c0 8.284-6.716 15-15 15z" fill="#875f4b"/><path d="m127.467 270.999h-96.4c-5.404 0-10.391-2.907-13.053-7.609s-2.589-10.474.191-15.108l48.2-80.333c2.711-4.518 7.593-7.283 12.862-7.283s10.151 2.765 12.862 7.283l48.2 80.333c2.78 4.634 2.854 10.405.191 15.108s-7.649 7.609-13.053 7.609z" fill="#f0c8a0"/><path d="m140.52 263.39c2.663-4.703 2.589-10.474-.191-15.108l-48.2-80.333c-2.711-4.518-7.593-7.283-12.862-7.283v110.333h48.2c5.404 0 10.39-2.907 13.053-7.609z" fill="#dcaa78"/><path d="m127.467 431.666h-96.4c-8.284 0-15-6.716-15-15v-160.667h126.4v160.667c0 8.284-6.716 15-15 15z" fill="#dcaa78"/><path d="m142.467 416.666v-160.667h-63.2v175.667h48.2c8.284 0 15-6.716 15-15z" fill="#b28562"/><path d="m143.533 511.999h-128.533c-8.284 0-15-6.716-15-15v-80.333c0-8.284 6.716-15 15-15h128.533c8.284 0 15 6.716 15 15v80.333c0 8.284-6.716 15-15 15z" fill="#b28562"/><path d="m158.533 496.999v-80.333c0-8.284-6.716-15-15-15h-64.266v110.333h64.267c8.283 0 14.999-6.716 14.999-15z" fill="#875f4b"/><path d="m432.733 190.666c-8.284 0-15-6.716-15-15v-32.133c0-8.284 6.716-15 15-15s15 6.716 15 15v32.133c0 8.284-6.715 15-15 15z" fill="#875f4b"/><path d="m480.934 270.999h-96.4c-5.404 0-10.391-2.907-13.053-7.609s-2.589-10.474.191-15.108l48.2-80.333c2.711-4.518 7.593-7.283 12.862-7.283s10.151 2.765 12.862 7.283l48.2 80.333c2.78 4.634 2.854 10.405.191 15.108s-7.649 7.609-13.053 7.609z" fill="#f0c8a0"/><path d="m493.987 263.39c2.663-4.703 2.589-10.474-.191-15.108l-48.2-80.333c-2.711-4.518-7.593-7.283-12.862-7.283v110.333h48.2c5.404 0 10.39-2.907 13.053-7.609z" fill="#dcaa78"/><path d="m480.934 431.666h-96.4c-8.284 0-15-6.716-15-15v-160.667h126.4v160.667c0 8.284-6.716 15-15 15z" fill="#dcaa78"/><path d="m495.934 416.666v-160.667h-63.2v175.667h48.2c8.284 0 15-6.716 15-15z" fill="#b28562"/><path d="m497 511.999h-128.533c-8.284 0-15-6.716-15-15v-80.333c0-8.284 6.716-15 15-15h128.533c8.284 0 15 6.716 15 15v80.333c0 8.284-6.716 15-15 15z" fill="#b28562"/><path d="m512 496.999v-80.333c0-8.284-6.716-15-15-15h-64.267v110.333h64.267c8.284 0 15-6.716 15-15z" fill="#875f4b"/></g></svg>