<svg id="Layer_1" enable-background="new 0 0 512 512" height="512" viewBox="0 0 512 512" width="512" xmlns="http://www.w3.org/2000/svg"><g><path d="m256 158.528c-19.601 0-37.105-11.698-44.602-29.802-7.506-18.088-3.403-38.739 10.458-52.6l23.538-23.538c2.813-2.813 6.628-4.394 10.606-4.394h.003c3.979.001 7.795 1.583 10.607 4.397.001.001 10.298 10.306 23.525 23.534 13.857 13.856 17.965 34.504 10.466 52.603-7.497 18.103-25.004 29.8-44.601 29.8z" fill="#f0c8a0"/><path d="m256 158.528v-110.333h.003c3.979.001 7.795 1.583 10.607 4.397.001.001 10.298 10.306 23.525 23.534 13.857 13.856 17.965 34.504 10.466 52.603-7.497 18.102-25.004 29.799-44.601 29.799z" fill="#dcaa78"/><path d="m68.519 218.265c56.93 56.931 154.273 16.611 154.273-63.901v-10.835c0-8.254-6.667-15.006-14.921-15-62.634.046-113.604-50.895-113.604-113.534 0-6.15-3.758-11.672-9.474-13.939-5.584-2.214-11.941-.877-16.163 3.362-28.567 28.578-44.299 66.569-44.299 106.98 0 40.358 15.693 78.302 44.188 106.867z" fill="#e6e3dc"/><path d="m443.481 218.273c-56.93 56.931-154.273 16.611-154.273-63.901v-10.835c0-8.254 6.667-15.006 14.921-15 62.633.047 113.604-50.894 113.604-113.533 0-6.15 3.758-11.672 9.474-13.939 5.583-2.214 11.941-.876 16.162 3.363 28.567 28.578 44.299 66.569 44.299 106.98.001 40.356-15.692 78.3-44.187 106.865z" fill="#d2d2c8"/><path d="m207.8 383.462h-160.667c-8.284 0-15-6.716-15-15v-64.283c0-96.854 78.796-175.65 175.651-175.65 8.284 0 15.016 6.716 15.016 15v224.934c0 8.283-6.716 14.999-15 14.999z" fill="#5d3935"/><path d="m464.866 383.462h-160.666c-8.284 0-15-6.716-15-15v-224.934c0-8.284 6.716-15 15-15 96.869 0 175.666 78.796 175.666 175.65v64.283c0 8.285-6.716 15.001-15 15.001z" fill="#170100"/><path d="m497 512h-482c-8.284 0-15-6.716-15-15v-128.533c0-8.284 6.716-15 15-15h177.8v-209.939c0-8.284 6.716-15 15-15h96.4c8.284 0 15 6.716 15 15v209.938h177.8c8.284 0 15 6.716 15 15v128.534c0 8.284-6.716 15-15 15z" fill="#b28562"/><path d="m497 353.467h-177.8v-209.939c0-8.284-6.716-15-15-15h-48.2v383.472h241c8.284 0 15-6.716 15-15v-128.533c0-8.284-6.716-15-15-15z" fill="#875f4b"/><g clip-rule="evenodd" fill-rule="evenodd"><circle cx="62.429" cy="432.733" fill="#f0c8a0" r="15"/><circle cx="372.143" cy="432.733" fill="#dcaa78" r="15"/><circle cx="217.286" cy="432.733" fill="#f0c8a0" r="15"/><circle cx="139.857" cy="432.733" fill="#f0c8a0" r="15"/><circle cx="449.571" cy="432.733" fill="#dcaa78" r="15"/><circle cx="294.714" cy="432.733" fill="#dcaa78" r="15"/></g></g></svg>